<svg width="25" height="24" viewBox="0 0 25 24" fill="none" xmlns="http://www.w3.org/2000/svg">
<path fill-rule="evenodd" clip-rule="evenodd" d="M11.1221 19C11.1221 19.5523 11.5698 20 12.1221 20C12.6744 20 13.1221 19.5523 13.1221 19V13H19.1221C19.6744 13 20.1221 12.5523 20.1221 12C20.1221 11.4477 19.6744 11 19.1221 11H13.1221V5C13.1221 4.44772 12.6744 4 12.1221 4C11.5698 4 11.1221 4.44772 11.1221 5V11H5.12207C4.56979 11 4.12207 11.4477 4.12207 12C4.12207 12.5523 4.56979 13 5.12207 13H11.1221V19Z" fill="black" fill-opacity="0.54"/>
</svg>
