<svg width="24" height="24" viewBox="0 0 24 24" fill="none" xmlns="http://www.w3.org/2000/svg">
<path fill-rule="evenodd" clip-rule="evenodd" d="M19.3828 15.6629C19.4787 15.7736 19.5776 15.8876 19.6791 16.0078C20.153 16.5703 19.7191 17.625 18.8916 17.6257H5.10961C4.27711 17.6257 3.8468 16.571 4.32281 16.0085C4.42449 15.8881 4.52353 15.7739 4.61959 15.663C5.60836 14.5225 6.28242 13.745 6.28242 10.3273C6.28242 6.89109 8.09367 5.67187 9.58711 5.07703C9.68998 5.03416 9.78273 4.97022 9.85939 4.88932C9.93604 4.80842 9.99491 4.71237 10.0322 4.60734C10.2916 3.74531 11.025 3 12.0009 3C12.9769 3 13.7088 3.74531 13.9697 4.60664C14.0072 4.71165 14.0662 4.80767 14.143 4.88855C14.2197 4.96943 14.3126 5.03339 14.4155 5.07633C15.9075 5.66976 17.7202 6.89109 17.7202 10.3266C17.7202 13.7449 18.3939 14.5221 19.3828 15.6629ZM9.37175 18.7739C9.40795 18.7579 9.44711 18.7498 9.48666 18.75H14.5084C14.5483 18.7497 14.5879 18.7579 14.6244 18.7741C14.6609 18.7903 14.6936 18.8141 14.7202 18.8439C14.7468 18.8737 14.7668 18.9089 14.7787 18.947C14.7907 18.9851 14.7944 19.0253 14.7896 19.065C14.6124 20.3566 13.4544 21 12.001 21C10.5322 21 9.36362 20.377 9.20541 19.0608C9.20126 19.0215 9.20545 18.9817 9.21771 18.9441C9.22997 18.9065 9.25003 18.8719 9.27657 18.8425C9.30312 18.8132 9.33555 18.7898 9.37175 18.7739Z" fill="black" fill-opacity="0.87"/>
</svg>
