<svg width="24" height="24" viewBox="0 0 24 24" fill="none" xmlns="http://www.w3.org/2000/svg">
<path d="M16.2409 7.75895C16.7989 8.31631 17.2415 8.97818 17.5435 9.70672C17.8456 10.4353 18.001 11.2162 18.001 12.0049C18.001 12.7935 17.8456 13.5744 17.5435 14.303C17.2415 15.0315 16.7989 15.6934 16.2409 16.2508M7.7591 16.2408C7.20112 15.6834 6.75847 15.0215 6.45646 14.293C6.15445 13.5644 5.999 12.7835 5.999 11.9949C5.999 11.2062 6.15445 10.4253 6.45646 9.69672C6.75847 8.96818 7.20112 8.30631 7.7591 7.74895M19.0715 4.92834C20.9466 6.80402 22 9.34765 22 11.9999C22 14.6521 20.9466 17.1957 19.0715 19.0714M4.92849 19.0714C3.05338 17.1957 2 14.6521 2 11.9999C2 9.34765 3.05338 6.80402 4.92849 4.92834M14.0004 11.9999C14.0004 13.1047 13.1048 14.0004 12 14.0004C10.8952 14.0004 9.99957 13.1047 9.99957 11.9999C9.99957 10.8951 10.8952 9.99949 12 9.99949C13.1048 9.99949 14.0004 10.8951 14.0004 11.9999Z" stroke="black" stroke-opacity="0.54" stroke-width="2" stroke-linecap="round" stroke-linejoin="round"/>
</svg>
