<svg width="24" height="24" viewBox="0 0 24 24" fill="none" xmlns="http://www.w3.org/2000/svg">
<path d="M17.6566 6.34379L19.7777 4.22271V9.87892H14.1215L16.2426 7.75784C13.9023 5.41759 10.0985 5.41759 7.75826 7.75784C7.04416 8.47194 6.54217 9.32744 6.2735 10.2324L4.20898 10.2324C4.52715 8.81131 5.23417 7.45382 6.3442 6.34379C9.46926 3.21874 14.5316 3.21874 17.6566 6.34379ZM7.75826 16.2422C10.0985 18.5824 13.9023 18.5824 16.2426 16.2422C16.9567 15.5281 17.4587 14.6726 17.7273 13.7676H19.7918C19.4737 15.1887 18.7667 16.5462 17.6566 17.6562C14.5316 20.7813 9.46926 20.7813 6.3442 17.6562L4.22313 19.7773V14.1211H9.87933L7.75826 16.2422Z" fill="#757575"/>
</svg>
