<svg width="24" height="25" viewBox="0 0 24 25" fill="none" xmlns="http://www.w3.org/2000/svg">
<path d="M20 12.8639C20 12.9114 19.9931 12.9578 19.9899 13.0047C19.1235 12.7114 17.9061 12.5138 16.5333 12.4727V18.0639C16.5333 18.9476 15.4589 19.6639 14.1333 19.6639C12.8077 19.6639 11.7333 18.9476 11.7333 18.0639C11.7333 17.1802 12.8077 16.4639 14.1333 16.4639C14.8877 16.4639 15.56 16.6964 16 17.0594V10.0639C18.2091 10.0639 20 11.3175 20 12.8639ZM11.2 18.0639C11.2 18.2383 11.2304 18.4066 11.2824 18.5679C11.0795 18.5863 10.8744 18.5972 10.6667 18.5972C6.9848 18.5972 4 15.6124 4 11.9306C4 8.24872 6.9848 5.26392 10.6667 5.26392C13.528 5.26392 15.9675 7.06685 16.9131 9.59858C16.6181 9.55405 16.3128 9.53058 16 9.53058C15.7053 9.53058 15.4667 9.76925 15.4667 10.0639V16.1594C15.0595 16.0106 14.6032 15.9306 14.1333 15.9306C12.4885 15.9306 11.2 16.8676 11.2 18.0639ZM12.5333 11.9306C12.5333 10.8996 11.6976 10.0639 10.6667 10.0639C9.63573 10.0639 8.8 10.8996 8.8 11.9306C8.8 12.9615 9.63573 13.7972 10.6667 13.7972C11.6976 13.7972 12.5333 12.9615 12.5333 11.9306Z" fill="#757575"/>
</svg>
