<svg width="49" height="49" viewBox="0 0 49 49" fill="none" xmlns="http://www.w3.org/2000/svg">
<path fill-rule="evenodd" clip-rule="evenodd" d="M24.3391 48.679C37.5939 48.679 48.3391 37.9338 48.3391 24.679C48.3391 11.4241 37.5939 0.678955 24.3391 0.678955C11.0843 0.678955 0.339111 11.4241 0.339111 24.679C0.339111 37.9338 11.0843 48.679 24.3391 48.679Z" fill="#00B0FF"/>
<path fill-rule="evenodd" clip-rule="evenodd" d="M26.8717 16.1075H30.3782C30.7014 16.1075 30.9626 16.4559 30.9626 16.8868V32.4712C30.9626 32.9021 30.7014 33.2504 30.3782 33.2504H26.8717C26.5486 33.2504 26.2873 32.9021 26.2873 32.4712V16.8868C26.2873 16.4559 26.5486 16.1075 26.8717 16.1075ZM18.3002 16.1075H21.8067C22.1299 16.1075 22.3911 16.4559 22.3911 16.8868V32.4712C22.3911 32.9021 22.1299 33.2504 21.8067 33.2504H18.3002C17.9771 33.2504 17.7158 32.9021 17.7158 32.4712V16.8868C17.7158 16.4559 17.9771 16.1075 18.3002 16.1075Z" fill="white"/>
</svg>
