<svg width="24" height="24" viewBox="0 0 24 24" fill="none" xmlns="http://www.w3.org/2000/svg">
<path d="M8.24051 9.26575C7.67563 9.26639 7.12481 9.44198 6.66378 9.76838C6.20274 10.0948 5.85412 10.556 5.66582 11.0885H3V12.9113H5.66582C5.85558 13.4422 6.20483 13.9015 6.66574 14.2263C7.12665 14.551 7.67668 14.7253 8.24051 14.7253C8.80433 14.7253 9.35436 14.551 9.81527 14.2263C10.2762 13.9015 10.6254 13.4422 10.8152 12.9113H21V11.0885H10.8152C10.6269 10.556 10.2783 10.0948 9.81724 9.76838C9.3562 9.44198 8.80539 9.26639 8.24051 9.26575ZM8.24051 12.9113C8.06025 12.9113 7.88404 12.8579 7.73416 12.7577C7.58429 12.6576 7.46747 12.5152 7.39849 12.3487C7.32951 12.1822 7.31146 11.9989 7.34663 11.8221C7.38179 11.6453 7.46859 11.4829 7.59605 11.3555C7.72352 11.228 7.88591 11.1412 8.0627 11.106C8.2395 11.0709 8.42275 11.0889 8.58928 11.1579C8.75582 11.2269 8.89816 11.3437 8.9983 11.4936C9.09845 11.6435 9.1519 11.8197 9.1519 11.9999C9.1519 12.2416 9.05588 12.4735 8.88496 12.6444C8.71404 12.8153 8.48222 12.9113 8.24051 12.9113Z" fill="black" fill-opacity="0.54"/>
<path d="M15.7595 3C15.1946 3.00065 14.6438 3.17623 14.1828 3.50263C13.7217 3.82903 13.3731 4.29021 13.1848 4.82278H3V6.64557H13.1848C13.3746 7.1765 13.7238 7.63579 14.1847 7.96053C14.6456 8.28526 15.1957 8.45957 15.7595 8.45957C16.3233 8.45957 16.8733 8.28526 17.3343 7.96053C17.7952 7.63579 18.1444 7.1765 18.3342 6.64557H21V4.82278H18.3342C18.1459 4.29021 17.7973 3.82903 17.3362 3.50263C16.8752 3.17623 16.3244 3.00065 15.7595 3ZM15.7595 6.64557C15.5792 6.64557 15.403 6.59212 15.2532 6.49197C15.1033 6.39183 14.9865 6.24949 14.9175 6.08295C14.8485 5.91642 14.8304 5.73317 14.8656 5.55637C14.9008 5.37958 14.9876 5.21719 15.115 5.08973C15.2425 4.96227 15.4049 4.87546 15.5817 4.8403C15.7585 4.80513 15.9417 4.82318 16.1083 4.89216C16.2748 4.96114 16.4171 5.07796 16.5173 5.22783C16.6174 5.37771 16.6709 5.55392 16.6709 5.73418C16.6709 5.97589 16.5749 6.20771 16.4039 6.37863C16.233 6.54955 16.0012 6.64557 15.7595 6.64557Z" fill="black" fill-opacity="0.54"/>
<path d="M15.7595 15.5315C15.1946 15.5321 14.6438 15.7077 14.1828 16.0341C13.7217 16.3605 13.3731 16.8217 13.1848 17.3543H3V19.1771H13.1848C13.3746 19.708 13.7238 20.1673 14.1847 20.492C14.6456 20.8168 15.1957 20.9911 15.7595 20.9911C16.3233 20.9911 16.8733 20.8168 17.3343 20.492C17.7952 20.1673 18.1444 19.708 18.3342 19.1771H21V17.3543H18.3342C18.1459 16.8217 17.7973 16.3605 17.3362 16.0341C16.8752 15.7077 16.3244 15.5321 15.7595 15.5315ZM15.7595 19.1771C15.5792 19.1771 15.403 19.1236 15.2532 19.0235C15.1033 18.9233 14.9865 18.781 14.9175 18.6144C14.8485 18.4479 14.8304 18.2647 14.8656 18.0879C14.9008 17.9111 14.9876 17.7487 15.115 17.6212C15.2425 17.4938 15.4049 17.407 15.5817 17.3718C15.7585 17.3366 15.9417 17.3547 16.1083 17.4237C16.2748 17.4926 16.4171 17.6095 16.5173 17.7593C16.6174 17.9092 16.6709 18.0854 16.6709 18.2657C16.6709 18.5074 16.5749 18.7392 16.4039 18.9101C16.233 19.081 16.0012 19.1771 15.7595 19.1771Z" fill="black" fill-opacity="0.54"/>
</svg>
