<svg width="25" height="24" viewBox="0 0 25 24" fill="none" xmlns="http://www.w3.org/2000/svg">
<path fill-rule="evenodd" clip-rule="evenodd" d="M15.948 12.4768C18.2532 12.4768 20.122 10.6081 20.122 8.30281C20.122 5.99756 18.2532 4.12878 15.948 4.12878C13.6427 4.12878 11.7739 5.99756 11.7739 8.30281C11.7739 10.6081 13.6427 12.4768 15.948 12.4768ZM5.16475 17.0286L11.0195 10.2809C11.5328 11.5461 12.6213 12.5694 13.8644 13.1447L7.1167 18.9553C6.85643 19.2114 6.50589 19.355 6.14072 19.355C5.89667 19.355 5.65915 19.2909 5.45075 19.1719L4.78185 19.7703C4.61892 19.9161 4.36867 19.9021 4.2229 19.7392C4.07714 19.5763 4.09106 19.326 4.25399 19.1803L4.9038 18.5989C4.88985 18.5713 4.87684 18.5432 4.8648 18.5145C4.79518 18.3491 4.75931 18.1714 4.75931 17.992C4.75931 17.8125 4.79518 17.6348 4.8648 17.4694C4.93443 17.3039 5.0364 17.1541 5.16475 17.0286Z" fill="black" fill-opacity="0.54"/>
</svg>
