<svg width="32" height="33" viewBox="0 0 32 33" fill="none" xmlns="http://www.w3.org/2000/svg">
<path fill-rule="evenodd" clip-rule="evenodd" d="M6.60611 3.21655H12.0607C12.5634 3.21655 12.9697 3.75837 12.9697 4.42867V28.6711C12.9697 29.3414 12.5634 29.8832 12.0607 29.8832H6.60611C6.10339 29.8832 5.69702 29.3414 5.69702 28.6711V4.42867C5.69702 3.75837 6.10339 3.21655 6.60611 3.21655ZM19.9393 3.21655H25.3938C25.8966 3.21655 26.3029 3.75837 26.3029 4.42867V28.6711C26.3029 29.3414 25.8966 29.8832 25.3938 29.8832H19.9393C19.4366 29.8832 19.0302 29.3414 19.0302 28.6711V4.42867C19.0302 3.75837 19.4366 3.21655 19.9393 3.21655Z" fill="white"/>
</svg>
