<svg width="24" height="24" viewBox="0 0 24 24" fill="none" xmlns="http://www.w3.org/2000/svg">
<path d="M20.0936 5.71927C20.5942 5.21866 20.5942 4.40702 20.0936 3.90641C19.593 3.4058 18.7813 3.4058 18.2807 3.90641L12 10.1871L5.71929 3.90641C5.21868 3.4058 4.40704 3.4058 3.90643 3.90641C3.40582 4.40702 3.40582 5.21866 3.90643 5.71927L10.1871 12L3.90643 18.2807C3.40582 18.7813 3.40582 19.5929 3.90643 20.0936C4.40704 20.5942 5.21868 20.5942 5.71929 20.0936L12 13.8128L18.2807 20.0936C18.7813 20.5942 19.593 20.5942 20.0936 20.0936C20.5942 19.5929 20.5942 18.7813 20.0936 18.2807L13.8129 12L20.0936 5.71927Z" fill="#F2F2F2"/>
</svg>
