<svg width="24" height="24" viewBox="0 0 24 24" fill="none" xmlns="http://www.w3.org/2000/svg">
<path d="M6.375 12C6.375 11.0719 5.61563 10.3125 4.6875 10.3125C3.75937 10.3125 3 11.0719 3 12C3 12.9281 3.75937 13.6875 4.6875 13.6875C5.61563 13.6875 6.375 12.9281 6.375 12ZM10.3125 12C10.3125 12.9281 11.0719 13.6875 12 13.6875C12.9281 13.6875 13.6875 12.9281 13.6875 12C13.6875 11.0719 12.9281 10.3125 12 10.3125C11.0719 10.3125 10.3125 11.0719 10.3125 12ZM17.625 12C17.625 12.9281 18.3844 13.6875 19.3125 13.6875C20.2406 13.6875 21 12.9281 21 12C21 11.0719 20.2406 10.3125 19.3125 10.3125C18.3844 10.3125 17.625 11.0719 17.625 12Z" fill="black" fill-opacity="0.87"/>
</svg>
