<svg width="33" height="33" viewBox="0 0 33 33" fill="none" xmlns="http://www.w3.org/2000/svg">
<path d="M15.3988 6.81313C15.7601 6.77143 16.1276 6.75 16.5 6.75C21.7467 6.75 26 11.0033 26 16.25C26 21.4967 21.7467 25.75 16.5 25.75C11.2533 25.75 7 21.4967 7 16.25C7 15.611 7.06309 14.9867 7.18339 14.383" stroke="white" stroke-width="1.6" stroke-linecap="round"/>
<path d="M13.2002 3.6499L9.9002 6.9499L13.2002 10.2499" stroke="white" stroke-width="1.4" stroke-linecap="round" stroke-linejoin="round"/>
<path d="M16.9004 3.6499L13.6004 6.9499L16.9004 10.2499" stroke="white" stroke-width="1.4" stroke-linecap="round" stroke-linejoin="round"/>
<path d="M14.8794 19.0901V13.3967H14.7594L12.3994 14.2367V15.1567L13.7461 14.7434V19.0901H14.8794ZM19.4394 13.4634C19.1994 13.3701 18.9461 13.3301 18.6527 13.3301C18.3594 13.3301 18.1061 13.3701 17.8661 13.4634C17.6261 13.5567 17.4261 13.7034 17.2661 13.9034C17.1061 14.1034 16.9594 14.3567 16.8794 14.6634C16.7994 14.9701 16.7461 15.3301 16.7461 15.7567V16.7434C16.7461 17.1701 16.7994 17.5434 16.8927 17.8367C16.9861 18.1301 17.1194 18.3967 17.2927 18.5967C17.4661 18.7967 17.6661 18.9434 17.9061 19.0367C18.1461 19.1301 18.3994 19.1701 18.6927 19.1701C18.9861 19.1701 19.2394 19.1301 19.4794 19.0367C19.7194 18.9434 19.9194 18.7967 20.0794 18.5967C20.2394 18.3967 20.3727 18.1434 20.4661 17.8367C20.5594 17.5301 20.5994 17.1701 20.5994 16.7434V15.7567C20.5994 15.3301 20.5461 14.9567 20.4527 14.6634C20.3594 14.3701 20.2261 14.1034 20.0527 13.9034C19.8794 13.7034 19.6661 13.5567 19.4394 13.4634ZM19.4527 16.8901C19.4527 17.1434 19.4394 17.3567 19.3994 17.5301C19.3594 17.7034 19.3194 17.8501 19.2527 17.9567C19.1861 18.0634 19.1061 18.1434 18.9994 18.1834C18.8927 18.2234 18.7861 18.2501 18.6661 18.2501C18.5461 18.2501 18.4261 18.2234 18.3327 18.1834C18.2394 18.1434 18.1461 18.0634 18.0794 17.9567C18.0127 17.8501 17.9594 17.7034 17.9194 17.5301C17.8794 17.3567 17.8661 17.1434 17.8661 16.8901V15.5967C17.8661 15.3434 17.8794 15.1301 17.9194 14.9567C17.9594 14.7834 17.9994 14.6501 18.0794 14.5434C18.1594 14.4367 18.2261 14.3567 18.3327 14.3167C18.4394 14.2767 18.5461 14.2501 18.6661 14.2501C18.7861 14.2501 18.9061 14.2767 18.9994 14.3167C19.0927 14.3567 19.1861 14.4367 19.2527 14.5434C19.3194 14.6501 19.3727 14.7834 19.4127 14.9567C19.4527 15.1301 19.4661 15.3434 19.4661 15.5967V16.8901H19.4527Z" fill="white"/>
</svg>
