<svg width="25" height="24" viewBox="0 0 25 24" fill="none" xmlns="http://www.w3.org/2000/svg">
<path d="M17.0857 4.90906L19.9221 7.74542L17.0857 10.5818V4.90906ZM11.5725 15.3377C11.8264 14.9406 12.0668 14.4811 12.2682 14.001C12.822 14.8902 13.814 15.5263 14.9556 15.5454H17.0857V16.9636H14.9584C14.9556 16.9636 14.9514 16.9636 14.9478 16.9636C13.5849 16.9636 12.3703 16.3325 11.5789 15.3462L11.5725 15.3377ZM11.3889 12.1836C10.5621 15.266 8.8085 16.9636 6.44936 16.9636H4.32208V15.5454H6.44936C8.57663 15.5454 9.56368 13.5174 10.0189 11.8163C10.8457 8.73389 12.5993 7.03633 14.9584 7.03633H17.0857V8.45451H14.9584C12.8312 8.45451 11.8441 10.4825 11.3889 12.1836ZM4.32208 8.45451V7.03633H6.44936C6.45219 7.03633 6.45645 7.03633 6.45999 7.03633C7.82286 7.03633 9.03754 7.66742 9.82888 8.65377C9.58212 9.05937 9.34103 9.51886 9.13965 9.99891C8.58585 9.10971 7.59383 8.47366 6.45219 8.45451H4.32208ZM17.0857 19.0909V13.4181L19.9221 16.2545L17.0857 19.0909Z" fill="#757575" stroke="#757575" stroke-width="0.3"/>
</svg>
