<svg width="24" height="25" viewBox="0 0 24 25" fill="none" xmlns="http://www.w3.org/2000/svg">
<path d="M14.6598 18.8344C14.8576 18.5192 15.1504 18.2749 15.496 18.1366V16.0545C15.4956 15.9151 15.5184 15.7767 15.5633 15.6448C15.4155 15.6055 15.2752 15.5718 15.1518 15.5419C15.1424 15.5394 15.1341 15.5337 15.1284 15.5259C15.1226 15.5181 15.1196 15.5086 15.12 15.4989V14.8853C15.4776 14.4189 15.7448 13.8897 15.9076 13.325C16.3135 12.9247 16.4931 12.2905 16.5885 11.9482C16.7457 11.3869 16.9047 10.5881 16.4688 10.0119L16.4501 9.98761C16.6596 8.9774 16.9215 6.59218 15.1087 5.38367C15.2138 5.27633 15.2962 5.14899 15.3512 5.00921C15.4061 4.86942 15.4325 4.72003 15.4286 4.56989C15.4275 4.55539 15.4235 4.54128 15.4167 4.52841C15.41 4.51554 15.4007 4.50419 15.3894 4.49506C15.3666 4.47701 15.3378 4.46831 15.3089 4.47074C15.2865 4.47074 13.0191 4.7289 11.9284 4.50254C10.806 4.27056 9.57503 5.12176 9.32248 5.99915C8.90368 6.05513 8.52251 6.27017 8.25802 6.59966C7.76226 7.20953 7.6126 8.18232 7.80716 9.48437C7.82026 9.65274 7.84084 9.81737 7.8689 9.98761L7.85019 10.0119C7.41617 10.5863 7.57519 11.3925 7.73233 11.9482C7.82961 12.2905 8.0092 12.9247 8.41329 13.325C8.57296 13.893 8.83755 14.426 9.1934 14.8965V15.5007C9.19409 15.5105 9.19127 15.5202 9.18544 15.5281C9.17961 15.536 9.17115 15.5416 9.16159 15.5438C7.61073 15.9011 4.00391 17.0404 4.00391 19.9026C4.00391 20.0515 4.06304 20.1942 4.16829 20.2995C4.27354 20.4047 4.41629 20.4639 4.56513 20.4639H14.6672C14.5937 20.3473 14.5358 20.2215 14.4951 20.0897L14.4858 20.0542C14.4712 20.0025 14.4593 19.95 14.4502 19.897C14.4502 19.8802 14.4502 19.8634 14.4502 19.8465C14.4394 19.779 14.4331 19.7109 14.4315 19.6426C14.4317 19.3977 14.4907 19.1565 14.6036 18.9392C14.6198 18.9043 14.6386 18.8694 14.6598 18.8344ZM9.21584 12.6609C9.15785 12.6609 8.9502 12.5711 8.6939 11.6676C8.49373 10.9623 8.57792 10.706 8.64713 10.6162C8.67061 10.5867 8.70097 10.5634 8.73555 10.5484C8.77013 10.5334 8.80786 10.5271 8.84543 10.5301H8.89407C8.92206 10.5317 8.94953 10.5221 8.97053 10.5036C8.99154 10.485 9.0044 10.4589 9.00632 10.431C9.00632 10.416 9.13166 8.89696 10.0315 8.34882C10.4823 8.07569 11.0585 8.08505 11.7489 8.37875C13.1594 8.98114 14.2089 8.93998 14.8487 8.79968C15.5783 9.33845 15.3688 10.1971 15.3183 10.3655V10.3861C15.3124 10.403 15.3108 10.4211 15.3138 10.4387C15.3167 10.4564 15.324 10.473 15.3351 10.4871C15.3463 10.5014 15.3609 10.5127 15.3776 10.5198C15.3942 10.527 15.4124 10.5299 15.4305 10.5283C15.4746 10.5201 15.52 10.5236 15.5623 10.5384C15.6046 10.5532 15.6424 10.5787 15.6718 10.6124C15.7392 10.7022 15.8234 10.9585 15.6251 11.6638C15.3688 12.5674 15.1611 12.6516 15.1031 12.6572C15.0792 12.659 15.0565 12.6689 15.0389 12.6852C15.0212 12.7015 15.0096 12.7232 15.0058 12.747C14.8562 13.7104 14.091 14.9058 12.9143 15.3305C12.4262 15.5048 11.8928 15.5048 11.4046 15.3305C10.1812 14.8984 9.46653 13.688 9.32061 12.7451C9.31437 12.7222 9.30068 12.7021 9.28171 12.6878C9.26273 12.6736 9.23956 12.6661 9.21584 12.6665V12.6609ZM12.1567 17.7326C11.6842 17.7382 11.2171 17.6312 10.7942 17.4204C10.3712 17.2096 10.0046 16.901 9.72469 16.5203C9.97221 16.3818 10.1605 16.1576 10.2541 15.8899C10.5069 16.0572 10.7788 16.1935 11.0642 16.2958C11.7717 16.546 12.5436 16.546 13.2511 16.2958C13.5352 16.1896 13.8059 16.0502 14.0574 15.8805C14.1498 16.1524 14.3397 16.3804 14.5905 16.5203C14.3104 16.9013 13.9435 17.21 13.5202 17.4208C13.097 17.6316 12.6295 17.7385 12.1567 17.7326ZM19.8698 15.0555C19.9091 15.0869 19.9408 15.1267 19.9625 15.1721C19.9843 15.2174 19.9954 15.2671 19.9952 15.3174V19.0122C19.9952 19.4649 19.5611 19.8334 19.028 19.8334C18.4948 19.8334 18.0608 19.4593 18.0608 19.0122C18.0608 18.565 18.4948 18.1909 19.028 18.1909H19.1271V16.6232L17.1872 17.0535V19.6426C17.1872 20.0953 16.7531 20.4639 16.22 20.4639C15.6868 20.4639 15.2528 20.0897 15.2528 19.6426C15.2528 19.1955 15.6887 18.8251 16.2218 18.8251H16.321V16.0545C16.321 15.9586 16.3539 15.8657 16.4141 15.7911C16.4744 15.7165 16.5584 15.6649 16.6521 15.6448L19.5892 14.9919C19.6128 14.9894 19.6367 14.9894 19.6603 14.9919C19.7353 14.9892 19.809 15.0115 19.8698 15.0555Z" fill="#757575"/>
</svg>
