<svg width="24" height="24" viewBox="0 0 24 24" fill="none" xmlns="http://www.w3.org/2000/svg">
<rect x="4.21948" y="6.41504" width="15.5609" height="14.5853" rx="2" stroke="black" stroke-opacity="0.54" stroke-width="2"/>
<path fill-rule="evenodd" clip-rule="evenodd" d="M12.6662 12.0949L12.5574 16.6037C12.6364 17.3939 11.9875 18.205 11.0027 18.4871C9.92318 18.7969 8.84847 18.3534 8.60287 17.4966C8.35726 16.6398 9.03347 15.6944 10.1134 15.3845C10.7033 15.2156 11.2912 15.271 11.7435 15.4957L11.8289 12.6507L11.8798 10.1707C11.8795 10.0329 11.9251 9.89885 12.0094 9.78982C12.0937 9.68078 12.212 9.60293 12.3454 9.56853L14.9155 8.84344C14.9784 8.82715 15.0441 8.82546 15.1077 8.83852C15.1713 8.85157 15.2311 8.87901 15.2825 8.91874C15.3338 8.95847 15.3754 9.00943 15.404 9.06772C15.4326 9.126 15.4475 9.19006 15.4475 9.25499V10.3713C15.4479 10.5096 15.4021 10.9296 15.3173 11.0388C15.2325 11.1481 15.1137 11.2259 14.9797 11.2599L12.9215 11.8425C12.7769 11.8801 12.6819 11.945 12.6662 12.0949Z" fill="black" fill-opacity="0.54"/>
<rect x="7.19995" y="2.00012" width="9.6" height="2" rx="1" fill="black" fill-opacity="0.54"/>
</svg>
