<svg width="24" height="24" viewBox="0 0 24 24" fill="none" xmlns="http://www.w3.org/2000/svg">
<path d="M15.1431 8.8569C15.5559 9.26962 15.8834 9.75962 16.1068 10.2989C16.3302 10.8382 16.4452 11.4162 16.4452 12C16.4452 12.5837 16.3302 13.1618 16.1068 13.7011C15.8834 14.2404 15.5559 14.7304 15.1431 15.1431M17.6568 6.34313C18.3997 7.086 18.989 7.96791 19.391 8.93852C19.7931 9.90913 20 10.9494 20 12C20 13.0506 19.7931 14.0909 19.391 15.0615C18.989 16.0321 18.3997 16.914 17.6568 17.6569M6.29866 14.6667H4.88889C4.65314 14.6667 4.42705 14.573 4.26035 14.4063C4.09365 14.2396 4 14.0135 4 13.7778V10.2222C4 9.98648 4.09365 9.76039 4.26035 9.59369C4.42705 9.42699 4.65314 9.33334 4.88889 9.33334H6.29866L10.4826 5.14936C11.0426 4.58936 12 4.98581 12 5.7778V18.2222C12 19.0142 11.0426 19.4106 10.4826 18.8506L6.29866 14.6667Z" stroke="#757575" stroke-width="1.6" stroke-linecap="round" stroke-linejoin="round"/>
</svg>
