<svg width="24" height="24" viewBox="0 0 24 24" fill="none" xmlns="http://www.w3.org/2000/svg">
<path fill-rule="evenodd" clip-rule="evenodd" d="M19.6791 16.0078C19.5776 15.8876 19.4787 15.7736 19.3828 15.6629C18.4553 14.593 17.8051 13.8429 17.7279 10.9339C17.4918 10.9773 17.2486 11 17 11C14.7909 11 13 9.20914 13 7C13 6.03146 13.3442 5.14331 13.917 4.45124C13.6191 3.65759 12.9176 3 12.0009 3C11.025 3 10.2916 3.74531 10.0322 4.60734C9.99491 4.71237 9.93604 4.80842 9.85939 4.88932C9.78273 4.97022 9.68998 5.03416 9.58711 5.07703C8.09367 5.67187 6.28242 6.89109 6.28242 10.3273C6.28242 13.745 5.60836 14.5225 4.61959 15.663L4.6195 15.6631C4.52347 15.7739 4.42446 15.8881 4.32281 16.0085C3.8468 16.571 4.27711 17.6257 5.10961 17.6257H18.8916C19.7191 17.625 20.153 16.5703 19.6791 16.0078ZM9.48666 18.75C9.44711 18.7498 9.40795 18.7579 9.37175 18.7739C9.33555 18.7898 9.30312 18.8132 9.27657 18.8425C9.25003 18.8719 9.22997 18.9065 9.21771 18.9441C9.20545 18.9817 9.20126 19.0215 9.20541 19.0608C9.36362 20.377 10.5322 21 12.001 21C13.4544 21 14.6124 20.3566 14.7896 19.065C14.7944 19.0253 14.7907 18.9851 14.7787 18.947C14.7668 18.9089 14.7468 18.8737 14.7202 18.8439C14.6936 18.8141 14.6609 18.7903 14.6244 18.7741C14.5879 18.7579 14.5483 18.7497 14.5084 18.75H9.48666Z" fill="black" fill-opacity="0.87"/>
<circle cx="17" cy="7" r="2.5" fill="#FFB800"/>
</svg>
