<svg width="24" height="25" viewBox="0 0 24 25" fill="none" xmlns="http://www.w3.org/2000/svg">
<path d="M8.66064 20.116C15.4531 20.116 19.1683 14.4923 19.1683 9.61546C19.1683 9.45572 19.1683 9.29671 19.1575 9.13842C19.8803 8.61599 20.5042 7.96913 21 7.22812C20.326 7.52657 19.611 7.7223 18.8789 7.80876C19.6498 7.34755 20.2268 6.62213 20.5025 5.76751C19.7776 6.19739 18.9845 6.50034 18.1574 6.66331C17.6006 6.07164 16.8642 5.67986 16.0621 5.54858C15.2601 5.4173 14.4371 5.55385 13.7205 5.93709C13.0039 6.32033 12.4337 6.9289 12.0981 7.66863C11.7624 8.40836 11.6802 9.238 11.8639 10.0292C10.3957 9.95562 8.95929 9.57432 7.64806 8.91004C6.33683 8.24576 5.18004 7.31334 4.2528 6.17332C3.78055 6.98576 3.6359 7.94753 3.84832 8.8628C4.06075 9.77808 4.61426 10.578 5.39616 11.0998C4.80845 11.0824 4.23356 10.924 3.72 10.6379C3.72 10.653 3.72 10.6688 3.72 10.6846C3.72023 11.5367 4.01539 12.3625 4.5554 13.0218C5.09542 13.6812 5.84705 14.1336 6.6828 14.3023C6.13911 14.4505 5.56866 14.4722 5.01528 14.3657C5.25127 15.099 5.7107 15.7402 6.32933 16.1998C6.94796 16.6593 7.69484 16.9141 8.46552 16.9286C7.15781 17.9556 5.54236 18.5132 3.87912 18.5115C3.58529 18.5109 3.29175 18.4931 3 18.4582C4.68886 19.5413 6.65394 20.1158 8.66064 20.1131" fill="#282828"/>
</svg>
