<svg width="24" height="24" viewBox="0 0 24 24" fill="none" xmlns="http://www.w3.org/2000/svg">
<path d="M8.24051 9.2652C7.67563 9.26584 7.12481 9.44143 6.66378 9.76783C6.20274 10.0942 5.85412 10.5554 5.66582 11.088H3V12.9108H5.66582C5.85558 13.4417 6.20483 13.901 6.66574 14.2257C7.12665 14.5505 7.67668 14.7248 8.24051 14.7248C8.80433 14.7248 9.35436 14.5505 9.81527 14.2257C10.2762 13.901 10.6254 13.4417 10.8152 12.9108H21V11.088H10.8152C10.6269 10.5554 10.2783 10.0942 9.81724 9.76783C9.3562 9.44143 8.80539 9.26584 8.24051 9.2652ZM8.24051 12.9108C8.06025 12.9108 7.88404 12.8573 7.73416 12.7572C7.58429 12.657 7.46747 12.5147 7.39849 12.3482C7.32951 12.1816 7.31146 11.9984 7.34663 11.8216C7.38179 11.6448 7.46859 11.4824 7.59605 11.3549C7.72352 11.2275 7.88591 11.1407 8.0627 11.1055C8.2395 11.0703 8.42275 11.0884 8.58928 11.1574C8.75582 11.2263 8.89816 11.3432 8.9983 11.493C9.09845 11.6429 9.1519 11.8191 9.1519 11.9994C9.1519 12.2411 9.05588 12.4729 8.88496 12.6438C8.71404 12.8147 8.48222 12.9108 8.24051 12.9108Z" fill="black" fill-opacity="0.54"/>
<path d="M15.7595 2.99945C15.1946 3.0001 14.6438 3.17569 14.1828 3.50208C13.7217 3.82848 13.3731 4.28966 13.1848 4.82224H3V6.64502H13.1848C13.3746 7.17595 13.7238 7.63524 14.1847 7.95998C14.6456 8.28471 15.1957 8.45902 15.7595 8.45902C16.3233 8.45902 16.8733 8.28471 17.3343 7.95998C17.7952 7.63524 18.1444 7.17595 18.3342 6.64502H21V4.82224H18.3342C18.1459 4.28966 17.7973 3.82848 17.3362 3.50208C16.8752 3.17569 16.3244 3.0001 15.7595 2.99945ZM15.7595 6.64502C15.5792 6.64502 15.403 6.59157 15.2532 6.49142C15.1033 6.39128 14.9865 6.24894 14.9175 6.0824C14.8485 5.91587 14.8304 5.73262 14.8656 5.55582C14.9008 5.37903 14.9876 5.21664 15.115 5.08918C15.2425 4.96172 15.4049 4.87491 15.5817 4.83975C15.7585 4.80458 15.9417 4.82263 16.1083 4.89161C16.2748 4.96059 16.4171 5.07741 16.5173 5.22729C16.6174 5.37716 16.6709 5.55337 16.6709 5.73363C16.6709 5.97534 16.5749 6.20716 16.4039 6.37808C16.233 6.549 16.0012 6.64502 15.7595 6.64502Z" fill="black" fill-opacity="0.54"/>
<path d="M15.7595 15.5309C15.1946 15.5316 14.6438 15.7071 14.1828 16.0335C13.7217 16.3599 13.3731 16.8211 13.1848 17.3537H3V19.1765H13.1848C13.3746 19.7074 13.7238 20.1667 14.1847 20.4914C14.6456 20.8162 15.1957 20.9905 15.7595 20.9905C16.3233 20.9905 16.8733 20.8162 17.3343 20.4914C17.7952 20.1667 18.1444 19.7074 18.3342 19.1765H21V17.3537H18.3342C18.1459 16.8211 17.7973 16.3599 17.3362 16.0335C16.8752 15.7071 16.3244 15.5316 15.7595 15.5309ZM15.7595 19.1765C15.5792 19.1765 15.403 19.123 15.2532 19.0229C15.1033 18.9227 14.9865 18.7804 14.9175 18.6139C14.8485 18.4473 14.8304 18.2641 14.8656 18.0873C14.9008 17.9105 14.9876 17.7481 15.115 17.6206C15.2425 17.4932 15.4049 17.4064 15.5817 17.3712C15.7585 17.336 15.9417 17.3541 16.1083 17.4231C16.2748 17.4921 16.4171 17.6089 16.5173 17.7587C16.6174 17.9086 16.6709 18.0848 16.6709 18.2651C16.6709 18.5068 16.5749 18.7386 16.4039 18.9095C16.233 19.0805 16.0012 19.1765 15.7595 19.1765Z" fill="black" fill-opacity="0.54"/>
</svg>
