<svg width="24" height="24" viewBox="0 0 24 24" fill="none" xmlns="http://www.w3.org/2000/svg">
<path fill-rule="evenodd" clip-rule="evenodd" d="M12 4C7.60457 4 4 7.60457 4 12C4 16.3954 7.60457 20 12 20C16.3954 20 20 16.3954 20 12C20 7.60457 16.3954 4 12 4ZM2 12C2 6.5 6.5 2 12 2C17.5 2 22 6.5 22 12C22 17.5 17.5 22 12 22C6.5 22 2 17.5 2 12Z" fill="black" fill-opacity="0.54"/>
<path fill-rule="evenodd" clip-rule="evenodd" d="M10.7 6.7H12.8V12.0301L17.4145 14.7988L16.2982 16.6127L10.7 13.1676V6.7Z" fill="black" fill-opacity="0.54"/>
</svg>
