<svg width="24" height="25" viewBox="0 0 24 25" fill="none" xmlns="http://www.w3.org/2000/svg">
<path d="M12.0007 4.5C9.82806 4.5 9.55539 4.5095 8.70205 4.54833C7.85037 4.58733 7.26903 4.72217 6.76036 4.92C6.23419 5.12433 5.78785 5.39767 5.34318 5.8425C4.89818 6.28717 4.62484 6.7335 4.41984 7.2595C4.2215 7.76833 4.0865 8.34983 4.04817 9.20117C4.01 10.0545 4 10.3273 4 12.5C4 14.6727 4.00967 14.9445 4.04833 15.7978C4.0875 16.6495 4.22234 17.2308 4.42 17.7395C4.62451 18.2657 4.89784 18.712 5.34268 19.1567C5.78719 19.6017 6.23352 19.8757 6.75936 20.08C7.26837 20.2778 7.84987 20.4127 8.70138 20.4517C9.55472 20.4905 9.82723 20.5 11.9998 20.5C14.1726 20.5 14.4444 20.4905 15.2978 20.4517C16.1495 20.4127 16.7315 20.2778 17.2405 20.08C17.7665 19.8757 18.2121 19.6017 18.6567 19.1567C19.1017 18.712 19.375 18.2657 19.58 17.7397C19.7767 17.2308 19.9117 16.6493 19.9517 15.798C19.99 14.9447 20 14.6727 20 12.5C20 10.3273 19.99 10.0547 19.9517 9.20133C19.9117 8.34967 19.7767 7.76833 19.58 7.25967C19.375 6.7335 19.1017 6.28717 18.6567 5.8425C18.2116 5.3975 17.7666 5.12417 17.24 4.92C16.73 4.72217 16.1483 4.58733 15.2966 4.54833C14.4433 4.5095 14.1716 4.5 11.9982 4.5H12.0007ZM11.2831 5.94167C11.4961 5.94133 11.7337 5.94167 12.0007 5.94167C14.1368 5.94167 14.3899 5.94933 15.2335 5.98767C16.0135 6.02333 16.4368 6.15367 16.7188 6.26317C17.0921 6.40817 17.3583 6.5815 17.6381 6.8615C17.9181 7.1415 18.0915 7.40817 18.2368 7.7815C18.3463 8.06317 18.4768 8.4865 18.5123 9.2665C18.5507 10.1098 18.559 10.3632 18.559 12.4982C18.559 14.6332 18.5507 14.8865 18.5123 15.7298C18.4767 16.5098 18.3463 16.9332 18.2368 17.2148C18.0918 17.5882 17.9181 17.854 17.6381 18.1338C17.3581 18.4138 17.0923 18.5872 16.7188 18.7322C16.4371 18.8422 16.0135 18.9722 15.2335 19.0078C14.3901 19.0462 14.1368 19.0545 12.0007 19.0545C9.86456 19.0545 9.61139 19.0462 8.76805 19.0078C7.98804 18.9718 7.5647 18.8415 7.28253 18.732C6.9092 18.587 6.64253 18.4137 6.36252 18.1337C6.08252 17.8537 5.90919 17.5877 5.76385 17.2142C5.65435 16.9325 5.52385 16.5092 5.48835 15.7292C5.45002 14.8858 5.44235 14.6325 5.44235 12.4962C5.44235 10.3598 5.45002 10.1078 5.48835 9.2645C5.52402 8.4845 5.65435 8.06117 5.76385 7.77917C5.90885 7.40583 6.08252 7.13917 6.36252 6.85917C6.64253 6.57917 6.9092 6.40583 7.28253 6.2605C7.56454 6.1505 7.98804 6.0205 8.76805 5.98467C9.50606 5.95133 9.79206 5.94133 11.2831 5.93967V5.94167ZM16.2711 7.27C15.7411 7.27 15.3111 7.6995 15.3111 8.22967C15.3111 8.75967 15.7411 9.18967 16.2711 9.18967C16.8011 9.18967 17.2311 8.75967 17.2311 8.22967C17.2311 7.69967 16.8011 7.26967 16.2711 7.26967V7.27ZM12.0007 8.39167C9.73189 8.39167 7.89237 10.2312 7.89237 12.5C7.89237 14.7688 9.73189 16.6075 12.0007 16.6075C14.2696 16.6075 16.1085 14.7688 16.1085 12.5C16.1085 10.2312 14.2694 8.39167 12.0006 8.39167H12.0007ZM12.0007 9.83333C13.4734 9.83333 14.6674 11.0272 14.6674 12.5C14.6674 13.9727 13.4734 15.1667 12.0007 15.1667C10.5279 15.1667 9.33406 13.9727 9.33406 12.5C9.33406 11.0272 10.5279 9.83333 12.0007 9.83333Z" fill="#282828"/>
</svg>
