<svg width="24" height="24" viewBox="0 0 24 24" fill="none" xmlns="http://www.w3.org/2000/svg">
<path fill-rule="evenodd" clip-rule="evenodd" d="M5.6357 5.63522C6.02617 5.24464 6.02607 4.61147 5.63549 4.22101C5.24491 3.83054 4.61174 3.83064 4.22128 4.22122C2.15869 6.28443 1 9.08236 1 11.9997C1 14.9171 2.15869 17.715 4.22128 19.7782C4.61174 20.1688 5.24491 20.1689 5.63549 19.7785C6.02607 19.388 6.02617 18.7548 5.6357 18.3642C3.94806 16.6761 3 14.3868 3 11.9997C3 9.61269 3.94806 7.32337 5.6357 5.63522ZM19.7787 4.22122C19.3883 3.83064 18.7551 3.83054 18.3645 4.22101C17.9739 4.61147 17.9738 5.24464 18.3643 5.63522C20.0519 7.32337 21 9.61269 21 11.9997C21 14.3868 20.0519 16.6761 18.3643 18.3642C17.9738 18.7548 17.9739 19.388 18.3645 19.7785C18.7551 20.1689 19.3883 20.1688 19.7787 19.7782C21.8413 17.715 23 14.9171 23 11.9997C23 9.08236 21.8413 6.28443 19.7787 4.22122ZM8.46581 8.45633C8.85655 8.06602 8.8569 7.43285 8.4666 7.04211C8.07629 6.65137 7.44312 6.65102 7.05238 7.04133C6.40143 7.69156 5.88502 8.46372 5.53269 9.31366C5.18035 10.1636 4.999 11.0747 4.999 11.9947C4.999 12.9148 5.18035 13.8259 5.53269 14.6758C5.88502 15.5257 6.40143 16.2979 7.05238 16.9481C7.44312 17.3384 8.07629 17.3381 8.4666 16.9474C8.8569 16.5566 8.85655 15.9234 8.46581 15.5331C8.00081 15.0687 7.63192 14.5171 7.38023 13.9099C7.12855 13.3028 6.999 12.652 6.999 11.9947C6.999 11.3375 7.12855 10.6867 7.38023 10.0795C7.63192 9.47239 8.00081 8.92081 8.46581 8.45633ZM16.9476 7.05133C16.5569 6.66102 15.9237 6.66137 15.5334 7.05211C15.1431 7.44286 15.1435 8.07602 15.5342 8.46633C15.9992 8.93081 16.3681 9.4824 16.6198 10.0895C16.8715 10.6967 17.001 11.3475 17.001 12.0047C17.001 12.662 16.8715 13.3128 16.6198 13.9199C16.3681 14.5271 15.9992 15.0787 15.5342 15.5431C15.1435 15.9334 15.1431 16.5666 15.5334 16.9574C15.9237 17.3481 16.5569 17.3484 16.9476 16.9581C17.5986 16.3079 18.115 15.5358 18.4673 14.6858C18.8197 13.8359 19.001 12.9248 19.001 12.0047C19.001 11.0847 18.8197 10.1736 18.4673 9.32366C18.115 8.47372 17.5986 7.70156 16.9476 7.05133ZM12 8.99937C10.3429 8.99937 8.99957 10.3427 8.99957 11.9998C8.99957 13.6569 10.3429 15.0002 12 15.0002C13.6571 15.0002 15.0004 13.6569 15.0004 11.9998C15.0004 10.3427 13.6571 8.99937 12 8.99937Z" fill="#00B0FF"/>
</svg>
