<svg width="24" height="24" viewBox="0 0 24 24" fill="none" xmlns="http://www.w3.org/2000/svg">
<path fill-rule="evenodd" clip-rule="evenodd" d="M16.9581 10.4792C16.9581 14.0575 14.0573 16.9582 10.4791 16.9582C6.90077 16.9582 4 14.0575 4 10.4792C4 6.9009 6.90077 4.00012 10.4791 4.00012C14.0573 4.00012 16.9581 6.9009 16.9581 10.4792ZM15.704 17.1575C14.2641 18.2857 12.4501 18.9582 10.4791 18.9582C5.79621 18.9582 2 15.162 2 10.4792C2 5.79633 5.79621 2.00012 10.4791 2.00012C15.1619 2.00012 18.9581 5.79633 18.9581 10.4792C18.9581 12.4502 18.2856 14.2641 17.1575 15.704L21.699 20.2455C22.1003 20.6469 22.1003 21.2976 21.699 21.699C21.2976 22.1004 20.6469 22.1004 20.2455 21.699L15.704 17.1575Z" fill="black" fill-opacity="0.54"/>
</svg>
