<svg width="24" height="25" viewBox="0 0 24 25" fill="none" xmlns="http://www.w3.org/2000/svg">
<path d="M6.375 12.561C6.375 11.6329 5.61563 10.8735 4.6875 10.8735C3.75937 10.8735 3 11.6329 3 12.561C3 13.4892 3.75937 14.2485 4.6875 14.2485C5.61563 14.2485 6.375 13.4892 6.375 12.561Z" fill="#757575"/>
<path d="M13.6875 12.561C13.6875 11.6329 12.9281 10.8735 12 10.8735C11.0719 10.8735 10.3125 11.6329 10.3125 12.561C10.3125 13.4892 11.0719 14.2485 12 14.2485C12.9281 14.2485 13.6875 13.4892 13.6875 12.561Z" fill="#757575"/>
<path d="M21 12.561C21 11.6329 20.2406 10.8735 19.3125 10.8735C18.3844 10.8735 17.625 11.6329 17.625 12.561C17.625 13.4892 18.3844 14.2485 19.3125 14.2485C20.2406 14.2485 21 13.4892 21 12.561Z" fill="#757575"/>
</svg>
