<svg width="25" height="24" viewBox="0 0 25 24" fill="none" xmlns="http://www.w3.org/2000/svg">
<path d="M15.2651 8.85693C15.678 9.26965 16.0054 9.75965 16.2289 10.299C16.4523 10.8382 16.5673 11.4163 16.5673 12C16.5673 12.5838 16.4523 13.1618 16.2289 13.7011C16.0054 14.2404 15.678 14.7304 15.2651 15.1431M17.7789 6.34317C18.5218 7.08603 19.1111 7.96795 19.5131 8.93855C19.9151 9.90916 20.1221 10.9495 20.1221 12C20.1221 13.0506 19.9151 14.0909 19.5131 15.0615C19.1111 16.0321 18.5218 16.914 17.7789 17.6569M6.42073 14.6667H5.01096C4.77521 14.6667 4.54912 14.573 4.38242 14.4063C4.21572 14.2396 4.12207 14.0135 4.12207 13.7778V10.2223C4.12207 9.98651 4.21572 9.76042 4.38242 9.59372C4.54912 9.42702 4.77521 9.33337 5.01096 9.33337H6.42073L10.6047 5.14939C11.1647 4.5894 12.122 4.98584 12.122 5.77783V18.2222C12.122 19.0142 11.1647 19.4107 10.6047 18.8507L6.42073 14.6667Z" stroke="#757575" stroke-width="1.6" stroke-linecap="round" stroke-linejoin="round"/>
</svg>
