<svg width="24" height="24" viewBox="0 0 24 24" fill="none" xmlns="http://www.w3.org/2000/svg">
<path d="M13.7999 8.7843V8.05375V4.99995M13.7999 8.7843V4.99995M13.7999 8.7843L13.0723 8.85046C11.6679 8.97817 9.07086 9.41605 6.84559 10.8738C4.66947 12.2993 2.8 14.726 2.8 18.9996C2.8 19.0415 2.81318 19.0823 2.83765 19.1163C2.86212 19.1504 2.89666 19.1758 2.93639 19.1892L2.93784 19.1896C2.97681 19.2028 3.01893 19.2034 3.05824 19.1912C3.09754 19.1791 3.13198 19.155 3.15679 19.1221L3.16369 19.1132C3.13913 19.1448 3.25434 18.991 3.34088 18.8821C3.45035 18.7445 3.60377 18.5601 3.80106 18.3452C4.19504 17.916 4.76622 17.3624 5.51463 16.8143C7.01355 15.7164 9.23507 14.6333 12.1569 14.6333C12.4522 14.6333 12.752 14.6428 13.0561 14.6642L13.7999 14.7166V15.4623V18.5582V18.56C13.7998 18.5994 13.8114 18.638 13.8333 18.6708C13.8552 18.7036 13.8863 18.7292 13.9227 18.7443C13.9592 18.7594 13.9993 18.7633 14.0379 18.7556C14.0766 18.7478 14.1121 18.7288 14.1399 18.7008L14.1497 18.6909L14.1599 18.6814L21.147 12.1349C21.163 12.1177 21.1758 12.0977 21.1848 12.0759C21.1948 12.0518 21.2 12.0259 21.2 11.9997C21.2 11.9735 21.1948 11.9476 21.1848 11.9235C21.1748 11.8993 21.1596 11.8769 21.1411 11.8584L14.1413 4.85856C14.1133 4.83064 14.0776 4.81155 14.0389 4.80384C14.0001 4.79613 13.9599 4.80009 13.9234 4.81522C13.8868 4.83035 13.8556 4.85598 13.8336 4.88886C13.8117 4.92169 13.7999 4.96046 13.7999 4.99995" stroke="#757575" stroke-width="1.6"/>
</svg>
