<svg width="24" height="24" viewBox="0 0 24 24" fill="none" xmlns="http://www.w3.org/2000/svg">
<path d="M8.24051 9.26562C7.67563 9.26627 7.12481 9.44186 6.66378 9.76826C6.20274 10.0947 5.85412 10.5558 5.66582 11.0884H3V12.9112H5.66582C5.85558 13.4421 6.20483 13.9014 6.66574 14.2262C7.12665 14.5509 7.67668 14.7252 8.24051 14.7252C8.80433 14.7252 9.35436 14.5509 9.81527 14.2262C10.2762 13.9014 10.6254 13.4421 10.8152 12.9112H21V11.0884H10.8152C10.6269 10.5558 10.2783 10.0947 9.81724 9.76826C9.3562 9.44186 8.80539 9.26627 8.24051 9.26562ZM8.24051 12.9112C8.06025 12.9112 7.88404 12.8577 7.73416 12.7576C7.58429 12.6575 7.46747 12.5151 7.39849 12.3486C7.32951 12.182 7.31146 11.9988 7.34663 11.822C7.38179 11.6452 7.46859 11.4828 7.59605 11.3554C7.72352 11.2279 7.88591 11.1411 8.0627 11.1059C8.2395 11.0708 8.42275 11.0888 8.58928 11.1578C8.75582 11.2268 8.89816 11.3436 8.9983 11.4935C9.09845 11.6433 9.1519 11.8195 9.1519 11.9998C9.1519 12.2415 9.05588 12.4733 8.88496 12.6443C8.71404 12.8152 8.48222 12.9112 8.24051 12.9112Z" fill="white"/>
<path d="M15.7595 3C15.1946 3.00065 14.6438 3.17623 14.1828 3.50263C13.7217 3.82903 13.3731 4.29021 13.1848 4.82278H3V6.64557H13.1848C13.3746 7.1765 13.7238 7.63579 14.1847 7.96053C14.6456 8.28526 15.1957 8.45957 15.7595 8.45957C16.3233 8.45957 16.8733 8.28526 17.3343 7.96053C17.7952 7.63579 18.1444 7.1765 18.3342 6.64557H21V4.82278H18.3342C18.1459 4.29021 17.7973 3.82903 17.3362 3.50263C16.8752 3.17623 16.3244 3.00065 15.7595 3ZM15.7595 6.64557C15.5792 6.64557 15.403 6.59212 15.2532 6.49197C15.1033 6.39183 14.9865 6.24949 14.9175 6.08295C14.8485 5.91642 14.8304 5.73317 14.8656 5.55637C14.9008 5.37958 14.9876 5.21719 15.115 5.08973C15.2425 4.96227 15.4049 4.87546 15.5817 4.8403C15.7585 4.80513 15.9417 4.82318 16.1083 4.89216C16.2748 4.96114 16.4171 5.07796 16.5173 5.22783C16.6174 5.37771 16.6709 5.55392 16.6709 5.73418C16.6709 5.97589 16.5749 6.20771 16.4039 6.37863C16.233 6.54955 16.0012 6.64557 15.7595 6.64557Z" fill="white"/>
<path d="M15.7595 15.5312C15.1946 15.5319 14.6438 15.7075 14.1828 16.0339C13.7217 16.3603 13.3731 16.8215 13.1848 17.354H3V19.1768H13.1848C13.3746 19.7078 13.7238 20.167 14.1847 20.4918C14.6456 20.8165 15.1957 20.9908 15.7595 20.9908C16.3233 20.9908 16.8733 20.8165 17.3343 20.4918C17.7952 20.167 18.1444 19.7078 18.3342 19.1768H21V17.354H18.3342C18.1459 16.8215 17.7973 16.3603 17.3362 16.0339C16.8752 15.7075 16.3244 15.5319 15.7595 15.5312ZM15.7595 19.1768C15.5792 19.1768 15.403 19.1234 15.2532 19.0232C15.1033 18.9231 14.9865 18.7807 14.9175 18.6142C14.8485 18.4477 14.8304 18.2644 14.8656 18.0876C14.9008 17.9108 14.9876 17.7484 15.115 17.621C15.2425 17.4935 15.4049 17.4067 15.5817 17.3715C15.7585 17.3364 15.9417 17.3544 16.1083 17.4234C16.2748 17.4924 16.4171 17.6092 16.5173 17.7591C16.6174 17.909 16.6709 18.0852 16.6709 18.2654C16.6709 18.5071 16.5749 18.739 16.4039 18.9099C16.233 19.0808 16.0012 19.1768 15.7595 19.1768Z" fill="white"/>
</svg>
