<svg width="24" height="25" viewBox="0 0 24 25" fill="none" xmlns="http://www.w3.org/2000/svg">
<path d="M19.1171 4.5H4.88307C4.39536 4.5 4 4.89535 4 5.38303V19.6165C4 20.1042 4.39536 20.4995 4.88307 20.4995H19.1171C19.6048 20.4995 20.0001 20.1042 20.0001 19.6165V5.38303C20.0001 4.89535 19.6048 4.5 19.1171 4.5Z" fill="#282828"/>
<path d="M15.0398 20.5V14.3038H17.1201L17.4312 11.8891H15.0398V10.3478C15.0398 9.64824 15.2341 9.17225 16.2388 9.17225H17.5158V7.01412C16.8969 6.94846 16.2749 6.91664 15.6525 6.9188C13.8084 6.9188 12.5465 8.04403 12.5465 10.111V11.8915H10.4614V14.3062H12.5465V20.5H15.0398Z" fill="white"/>
</svg>
