<svg width="24" height="25" viewBox="0 0 24 25" fill="none" xmlns="http://www.w3.org/2000/svg">
<path fill-rule="evenodd" clip-rule="evenodd" d="M7.72193 5.37922C5.55021 5.37922 3.81818 7.11124 3.81818 9.28296C3.81818 10.6429 4.1898 11.7395 5.40584 13.1999C6.63865 14.6805 8.68642 16.471 12 19.1739C15.3136 16.471 17.3614 14.6805 18.5942 13.1999C19.8102 11.7395 20.1818 10.6429 20.1818 9.28296C20.1818 7.11124 18.4498 5.37922 16.2781 5.37922C14.4961 5.37922 13.498 6.34575 12.6795 7.26661C12.5069 7.46069 12.2597 7.57173 12 7.57173C11.7403 7.57173 11.4931 7.46069 11.3205 7.26661C10.502 6.34575 9.50387 5.37922 7.72193 5.37922ZM2 9.28296C2 6.10709 4.54605 3.56104 7.72193 3.56104C9.75117 3.56104 11.0868 4.46856 12 5.34445C12.9132 4.46856 14.2488 3.56104 16.2781 3.56104C19.454 3.56104 22 6.10709 22 9.28296C22 11.1316 21.4358 12.6286 19.9914 14.3633C18.5954 16.0399 16.3321 17.9922 12.8988 20.7869L12.582 21.0509C12.2449 21.3318 11.7551 21.3318 11.418 21.0509L11.1012 20.7869C7.66794 17.9922 5.4046 16.0399 4.0086 14.3633C2.56421 12.6286 2 11.1316 2 9.28296Z" fill="black" fill-opacity="0.54"/>
</svg>
