<svg width="81" height="80" viewBox="0 0 81 80" fill="none" xmlns="http://www.w3.org/2000/svg">
<rect x="0.5" width="80" height="80" rx="40" fill="black" fill-opacity="0.1"/>
<rect x="1.5" y="1" width="78" height="78" rx="39" stroke="white" stroke-opacity="0.5" stroke-width="2"/>
<path fill-rule="evenodd" clip-rule="evenodd" d="M43.0805 33.3865L42.6346 51.8733C42.9587 55.1131 40.2981 58.4384 36.2603 59.5951C31.8342 60.8654 27.4279 59.0472 26.4209 55.5343C25.4139 52.0214 28.1864 48.1448 32.6142 46.8746C35.0329 46.1819 37.4434 46.409 39.2977 47.3304L39.6477 35.6694L39.8562 25.4976C39.8551 24.9324 40.0421 24.383 40.3878 23.936C40.7336 23.4889 41.2183 23.1697 41.7655 23.0287L52.303 20.0558C52.5607 19.989 52.8303 19.9821 53.0911 20.0356C53.3518 20.0891 53.5969 20.2016 53.8075 20.3645C54.018 20.5274 54.1885 20.7364 54.3058 20.9753C54.4231 21.2143 54.4841 21.477 54.4842 21.7432V26.3203C54.4857 26.8871 54.2978 28.6092 53.9503 29.057C53.6028 29.5049 53.1156 29.8238 52.5662 29.9632L44.1272 32.352C43.5346 32.5062 43.1454 32.7723 43.0805 33.3865Z" fill="#31CC73"/>
</svg>
