<svg width="81" height="80" viewBox="0 0 81 80" fill="none" xmlns="http://www.w3.org/2000/svg">
<circle cx="40.5" cy="40" r="40" fill="black" fill-opacity="0.1"/>
<circle cx="40.5" cy="40" r="39" stroke="white" stroke-opacity="0.5" stroke-width="2"/>
<path d="M36.5059 50.8136H31.9793L33.9615 41.4793H26.9941L25.0118 50.8136H20.5L25.071 29.1864H29.5976L27.8077 37.6627H34.7751L36.5651 29.1864H41.0769L36.5059 50.8136Z" fill="#FFB800"/>
<path d="M60.5 37.3669C60.5 40.1282 60.0168 42.5296 59.0503 44.571C58.0838 46.6026 56.6834 48.1509 54.8491 49.216C53.0247 50.2811 50.8698 50.8136 48.3846 50.8136H41.713L46.284 29.1864H52.142C54.8047 29.1864 56.8609 29.8915 58.3106 31.3018C59.7702 32.712 60.5 34.7337 60.5 37.3669ZM48.5917 47.0266C50.0513 47.0266 51.3235 46.6519 52.4083 45.9024C53.4931 45.1529 54.3412 44.0533 54.9527 42.6036C55.5641 41.144 55.8698 39.4773 55.8698 37.6036C55.8698 36.0848 55.5099 34.931 54.7899 34.142C54.0799 33.3432 53.0542 32.9438 51.713 32.9438H50.0118L47.0237 47.0266H48.5917Z" fill="#FFB800"/>
</svg>
