<svg width="81" height="80" viewBox="0 0 81 80" fill="none" xmlns="http://www.w3.org/2000/svg">
<circle cx="40.5" cy="40" r="40" fill="black" fill-opacity="0.1"/>
<circle cx="40.5" cy="40" r="39" stroke="white" stroke-opacity="0.5" stroke-width="2"/>
<path d="M42.6336 22.8337C42.6336 21.6553 41.6783 20.7 40.4999 20.7C39.3215 20.7 38.3662 21.6553 38.3662 22.8337L38.3662 52.015L28.7062 42.355C27.8729 41.5218 26.522 41.5218 25.6887 42.355C24.8555 43.1883 24.8555 44.5392 25.6887 45.3725L38.9913 58.6751C39.8246 59.5083 41.1755 59.5083 42.0088 58.6751L55.3114 45.3725C56.1446 44.5392 56.1446 43.1883 55.3114 42.355C54.4781 41.5218 53.1271 41.5218 52.2939 42.355L42.6336 52.0153V22.8337Z" fill="#00B0FF" stroke="#00B0FF" stroke-width="0.6"/>
</svg>
