<?xml version="1.0" encoding="utf-8"?>
<!-- Generator: Adobe Illustrator 16.0.0, SVG Export Plug-In . SVG Version: 6.00 Build 0)  -->
<!DOCTYPE svg PUBLIC "-//W3C//DTD SVG 1.1//EN" "http://www.w3.org/Graphics/SVG/1.1/DTD/svg11.dtd">
<svg version="1.1" id="Layer_1" xmlns="http://www.w3.org/2000/svg" xmlns:xlink="http://www.w3.org/1999/xlink" x="0px" y="0px"
	 width="116px" height="28px" viewBox="0 0 116 28" enable-background="new 0 0 116 28" xml:space="preserve">
<path fill="#2A2D36" d="M46.117,18.123c0,1.27-0.459,2.266-1.377,2.988s-2.184,1.084-3.799,1.084s-2.936-0.25-3.965-0.752v-2.207
	c0.651,0.307,1.341,0.547,2.07,0.723c0.736,0.176,1.419,0.264,2.051,0.264c0.924,0,1.605-0.176,2.041-0.527
	c0.443-0.352,0.664-0.824,0.664-1.416c0-0.534-0.202-0.986-0.605-1.357s-1.237-0.811-2.5-1.318c-1.302-0.527-2.22-1.129-2.754-1.807
	s-0.801-1.491-0.801-2.441c0-1.191,0.423-2.129,1.27-2.813s1.982-1.025,3.408-1.025c1.367,0,2.728,0.299,4.082,0.898L45.16,10.32
	c-1.27-0.534-2.402-0.801-3.398-0.801c-0.755,0-1.328,0.166-1.719,0.498c-0.391,0.326-0.586,0.758-0.586,1.299
	c0,0.371,0.078,0.69,0.234,0.957c0.156,0.261,0.414,0.508,0.771,0.742s1.002,0.543,1.934,0.928c1.048,0.437,1.816,0.844,2.305,1.221
	c0.488,0.378,0.846,0.805,1.074,1.279S46.117,17.479,46.117,18.123z M58.339,22h-2.305v-6.641c0-0.834-0.169-1.455-0.508-1.865
	c-0.332-0.41-0.863-0.615-1.592-0.615c-0.964,0-1.673,0.29-2.129,0.869c-0.449,0.573-0.674,1.537-0.674,2.891V22h-2.295V6.805h2.295
	v3.857c0,0.619-0.039,1.279-0.117,1.982h0.146c0.313-0.521,0.745-0.924,1.299-1.211c0.56-0.287,1.211-0.43,1.953-0.43
	c2.617,0,3.926,1.318,3.926,3.955V22z M68.49,22l-0.459-1.504h-0.078c-0.521,0.657-1.045,1.107-1.572,1.348
	c-0.527,0.234-1.205,0.352-2.031,0.352c-1.062,0-1.892-0.286-2.49-0.859c-0.593-0.573-0.889-1.383-0.889-2.432
	c0-1.113,0.413-1.953,1.24-2.52c0.826-0.566,2.086-0.875,3.779-0.928l1.865-0.059v-0.576c0-0.69-0.163-1.205-0.488-1.543
	c-0.319-0.345-0.817-0.518-1.494-0.518c-0.554,0-1.084,0.082-1.592,0.244s-0.996,0.355-1.465,0.576l-0.742-1.641
	c0.586-0.306,1.227-0.537,1.924-0.693c0.696-0.163,1.354-0.244,1.973-0.244c1.373,0,2.408,0.299,3.105,0.898
	c0.703,0.599,1.055,1.54,1.055,2.822V22H68.49z M65.072,20.438c0.833,0,1.5-0.23,2.002-0.693c0.508-0.469,0.762-1.123,0.762-1.963
	v-0.938l-1.387,0.059c-1.081,0.039-1.869,0.221-2.363,0.547c-0.488,0.318-0.732,0.811-0.732,1.475c0,0.482,0.143,0.855,0.43,1.123
	C64.069,20.307,64.499,20.438,65.072,20.438z M77.176,22.195c-1.348,0-2.398-0.488-3.154-1.465
	c-0.755-0.977-1.133-2.347-1.133-4.111c0-1.771,0.381-3.147,1.143-4.131c0.769-0.99,1.83-1.484,3.184-1.484
	c1.42,0,2.5,0.524,3.242,1.572h0.117c-0.11-0.775-0.166-1.387-0.166-1.836V6.805h2.305V22h-1.797l-0.4-1.416h-0.107
	C79.673,21.658,78.596,22.195,77.176,22.195z M77.791,20.34c0.944,0,1.631-0.264,2.061-0.791c0.43-0.533,0.651-1.396,0.664-2.588
	v-0.322c0-1.361-0.221-2.328-0.664-2.9c-0.442-0.573-1.136-0.859-2.08-0.859c-0.807,0-1.429,0.329-1.865,0.986
	c-0.436,0.651-0.654,1.582-0.654,2.793c0,1.197,0.212,2.112,0.635,2.744C76.311,20.027,76.945,20.34,77.791,20.34z M95.696,22
	h-2.305v-6.641c0-0.834-0.169-1.455-0.508-1.865c-0.332-0.41-0.862-0.615-1.592-0.615c-0.964,0-1.673,0.29-2.129,0.869
	c-0.449,0.573-0.674,1.537-0.674,2.891V22h-2.295V6.805h2.295v3.857c0,0.619-0.039,1.279-0.117,1.982h0.146
	c0.313-0.521,0.745-0.924,1.299-1.211c0.56-0.287,1.211-0.43,1.953-0.43c2.617,0,3.926,1.318,3.926,3.955V22z M101.385,22H99.09
	V11.199h2.295V22z M98.953,8.338c0-0.41,0.111-0.726,0.332-0.947c0.229-0.221,0.551-0.332,0.967-0.332
	c0.404,0,0.716,0.111,0.938,0.332c0.228,0.221,0.342,0.537,0.342,0.947c0,0.391-0.114,0.7-0.342,0.928
	c-0.222,0.221-0.533,0.332-0.938,0.332c-0.416,0-0.738-0.111-0.967-0.332C99.064,9.038,98.953,8.729,98.953,8.338z M114.378,22
	h-2.305v-6.641c0-0.834-0.169-1.455-0.509-1.865c-0.332-0.41-0.861-0.615-1.592-0.615c-0.97,0-1.679,0.287-2.128,0.859
	c-0.45,0.573-0.674,1.533-0.674,2.881V22h-2.295V11.199h1.797l0.322,1.416h0.116c0.326-0.514,0.789-0.911,1.388-1.191
	c0.599-0.28,1.263-0.42,1.992-0.42c2.591,0,3.887,1.318,3.887,3.955V22z"/>
<defs>
	<filter id="Adobe_OpacityMaskFilter" filterUnits="userSpaceOnUse" x="0" y="0" width="28" height="28.292">
		<feColorMatrix  type="matrix" values="1 0 0 0 0  0 1 0 0 0  0 0 1 0 0  0 0 0 1 0"/>
	</filter>
</defs>
<mask maskUnits="userSpaceOnUse" x="0" y="0" width="28" height="28.292" id="mask0">
	<path fill="#00B0FF" filter="url(#Adobe_OpacityMaskFilter)" d="M28,8c0-4.418-3.582-8-8-8H8C3.582,0,0,3.582,0,8v12
		c0,4.418,3.582,8,8,8h12c4.418,0,8-3.582,8-8V8z"/>
</mask>
<g mask="url(#mask0)">
	<path fill="#2A2D36" d="M28,0H0v28h28V0z"/>
	<path fill="#FFFFFF" d="M19.406,4.507c-0.132-0.443-0.63-0.638-1.027-0.404c-0.567,0.35-1.408,0.972-2.442,2.006l-0.475-0.303
		c0.132-0.319,0.023-0.692-0.272-0.879c-0.334-0.21-0.777-0.109-0.988,0.218c-0.21,0.334-0.116,0.778,0.218,0.988
		c0.296,0.187,0.685,0.132,0.91-0.125l0.428,0.272c-0.42,0.436-0.871,0.933-1.345,1.509l-0.381-0.241
		c0.132-0.319,0.023-0.692-0.272-0.879c-0.334-0.21-0.777-0.117-0.987,0.218s-0.117,0.778,0.218,0.988
		C13.292,8.062,13.673,8,13.899,7.75l0.358,0.226c-0.389,0.482-0.786,1.011-1.206,1.602L12.554,9.26
		c0.132-0.319,0.023-0.692-0.272-0.879c-0.334-0.21-0.778-0.109-0.988,0.218c-0.21,0.334-0.109,0.777,0.226,0.987
		c0.295,0.195,0.685,0.132,0.91-0.124l0.49,0.311c-0.357,0.513-0.731,1.073-1.104,1.672l-0.505-0.319
		c0.132-0.311,0.023-0.692-0.28-0.879c-0.334-0.21-0.777-0.108-0.987,0.218c-0.21,0.335-0.109,0.778,0.217,0.988
		c0.296,0.187,0.685,0.124,0.918-0.133l0.506,0.327c-0.335,0.537-0.669,1.12-1.019,1.727l-0.397-0.249
		c0.132-0.311,0.023-0.685-0.272-0.879c-0.334-0.218-0.778-0.117-0.988,0.218s-0.109,0.778,0.226,0.988
		c0.295,0.187,0.685,0.125,0.91-0.125l0.412,0.257c-0.311,0.56-0.63,1.159-0.949,1.781l-0.412-0.265
		c0.132-0.319,0.023-0.692-0.272-0.879c-0.334-0.21-0.778-0.109-0.988,0.218c-0.21,0.334-0.117,0.777,0.218,0.988
		c0.295,0.193,0.685,0.132,0.91-0.125l0.436,0.28c-0.109,0.218-0.218,0.428-0.327,0.653c-0.116,0.226-0.179,0.482-0.202,0.73
		c-0.031,0.39,0.055,0.778,0.249,1.129l0.513,0.925c0.265,0.467,0.342,1.011,0.233,1.532l-1.657,7.739H9.31l2.396-11.55l0.218-1.035
		c-0.155-0.101-0.233-0.295-0.194-0.482c0.055-0.256,0.311-0.42,0.56-0.365c0.257,0.055,0.42,0.312,0.374,0.568
		c-0.039,0.187-0.195,0.326-0.374,0.365l-0.202,0.973L9.699,28.292h1.206l2.364-11.395l0.863-4.138
		c-0.156-0.109-0.233-0.296-0.194-0.482c0.054-0.257,0.311-0.42,0.56-0.366c0.256,0.055,0.42,0.303,0.365,0.56
		c-0.039,0.194-0.187,0.327-0.365,0.366l-0.855,4.129l-2.349,11.325h1.206l2.294-11.037l1.548-7.443
		c-0.156-0.101-0.233-0.295-0.194-0.482c0.054-0.257,0.311-0.42,0.56-0.366c0.256,0.055,0.42,0.311,0.365,0.56
		c-0.039,0.194-0.187,0.334-0.365,0.374l-1.563,7.481l-2.256,10.913h1.276l1.058-6.013c0.078-0.475,0.311-0.902,0.669-1.213
		l2.271-1.952c0.039-0.039,0.086-0.078,0.117-0.117c0.35-0.365,0.537-0.871,0.498-1.376l-0.443-5.538
		c-0.063-0.817,0.218-1.626,0.778-2.217l0.84-0.895c0.358-0.381,0.482-0.918,0.342-1.408L19.406,4.507z"/>
</g>
</svg>
